<svg xmlns="http://www.w3.org/2000/svg" xmlns:xlink="http://www.w3.org/1999/xlink" viewBox="0 0 447.41 200.49"><defs><style>.cls-1{fill:#fe2e00;}.cls-2{fill:#9d1904;}.cls-3{fill:#fead00;}.cls-4{fill:url(#linear-gradient);}.cls-5{fill:#f8f8f8;}.cls-6{fill:#002b24;}.cls-7{fill:#fefefe;}.cls-8{fill:#e5ac4c;}.cls-9{fill:#ef2c00;}.cls-10{fill:url(#linear-gradient-2);}.cls-11{fill:#fce900;}.cls-12{fill:#c12906;}.cls-13{fill:#ffae00;}.cls-14{fill:#fff;}.cls-15{fill:url(#linear-gradient-3);}.cls-16{fill:url(#linear-gradient-4);}.cls-17{fill:#5a525d;opacity:0.5;}.cls-18{fill:#4a495a;opacity:0.33;}.cls-19{fill:url(#linear-gradient-5);}.cls-20{fill:#cecece;}.cls-21{fill:#808285;}.cls-22{fill:#d1d1d1;}</style><linearGradient id="linear-gradient" x1="103.81" y1="76.47" x2="433.68" y2="76.47" gradientUnits="userSpaceOnUse"><stop offset="0" stop-color="navy"/><stop offset="0.56" stop-color="#008aff"/><stop offset="1" stop-color="#00b3c5"/></linearGradient><linearGradient id="linear-gradient-2" x1="23.2" y1="167.43" x2="230.81" y2="167.43" xlink:href="#linear-gradient"/><linearGradient id="linear-gradient-3" x1="1283.89" y1="-35.1" x2="1606.48" y2="133.3" gradientTransform="matrix(-0.94, -0.35, -0.37, 1, 1578.56, 539.07)" gradientUnits="userSpaceOnUse"><stop offset="0.01" stop-color="#ffce00"/><stop offset="0.75" stop-color="#ff4500"/></linearGradient><linearGradient id="linear-gradient-4" x1="402.8" y1="68.48" x2="213.39" y2="125.04" gradientUnits="userSpaceOnUse"><stop offset="0" stop-color="#fff"/><stop offset="0.01" stop-color="#fff8f6"/><stop offset="0.05" stop-color="#ffd7c8"/><stop offset="0.09" stop-color="#ffb79d"/><stop offset="0.14" stop-color="#ff9c77"/><stop offset="0.2" stop-color="#ff8457"/><stop offset="0.25" stop-color="#ff703b"/><stop offset="0.32" stop-color="#ff6025"/><stop offset="0.4" stop-color="#ff5414"/><stop offset="0.49" stop-color="#ff4b09"/><stop offset="0.63" stop-color="#ff4602"/><stop offset="1" stop-color="#ff4500"/></linearGradient><linearGradient id="linear-gradient-5" x1="1451.27" y1="45.84" x2="1474.75" y2="45.84" gradientTransform="matrix(-0.94, -0.35, -0.35, 0.94, 1583.69, 525.23)" gradientUnits="userSpaceOnUse"><stop offset="0" stop-color="#02060f"/><stop offset="0.35" stop-color="#014f5c"/><stop offset="0.84" stop-color="#00b3c5"/><stop offset="1" stop-color="#2c3a55"/></linearGradient></defs><g id="Layer_2" data-name="Layer 2"><g id="space_background" data-name="space background"><polygon class="cls-1" points="143.06 66.13 99.52 28.35 0 39.91 109.92 0 207.62 59.58 143.06 66.13"/><path class="cls-2" d="M53,97.6C60.7,94.43,68.33,91,76.16,88.16,85.28,84.84,94.59,82,103.81,79a7.69,7.69,0,0,0,1.91.05c9.45-2.21,18.83-4.75,28.34-6.61,12-2.35,24.13-4.34,36.26-6.09,8.44-1.22,17-2,25.49-2.59,8.89-.65,17.82-1.31,26.73-1.25,15,.11,30.06.63,45.07,1.25,8.24.34,16.47,1,24.67,1.92,10,1.07,20.07,2.24,30,3.86,12.8,2.08,25.65,4.11,38.24,7.13,18.44,4.42,36.69,9.64,55,14.67,6.12,1.68,12.11,3.8,18.16,5.72,3.87,1.49,7.75,3,11.59,4.5.43.18,2.48.66.14,1.34l-.12-.21c-2.8-.38-5.61-.8-8.43-1.13-6.22-.71-12.44-1.35-18.66-2.07-8.74-1-17.48-2.08-26.22-3.06-6.65-.73-13.31-1.32-20-2-9.39-1-18.76-2.13-28.15-3.08-7.6-.76-15.23-1.34-22.85-2l-38.43-3.17c-5.08-.42-10.15-1-15.24-1.21-5.25-.21-10.52,0-16,0l9.47,12.56c-1.27.08-2.55.22-3.83.22q-100.26,0-200.52,0C55.33,97.69,54.16,97.63,53,97.6Z"/><path class="cls-3" d="M422.14,112.43l-1.23.13-.7.51a1.88,1.88,0,0,0-.58.13l-.7.51-1.23.13-.7.51-1.23.14-.7.5a1.59,1.59,0,0,0-.57.14c-5.3,1.53-10.61,3-15.9,4.59A464,464,0,0,1,321,136.16c-13.8,1.67-27.63,3.26-41.48,4.42-8.37.7-16.82.6-25.24.71-9.63.13-19.27.09-28.9.13a10.33,10.33,0,0,0-2.34-.72c-8.23-.47-16.47-.82-24.7-1.35-2.71-.17-5.38-.8-8.08-1.11-4.37-.49-8.75-.88-13.12-1.31-1.94-1.82-4.12-1.87-6.43-.85l-.69.12h0l-1.29-.56-5.79-.86-.68.13h0l-1.29-.57-2.58-.21c-.13-.15-.25-.4-.42-.43-9.55-1.89-19.22-3.28-28.62-5.74-12.52-3.28-24.82-7.39-37.21-11.15l.72-8.19a24.51,24.51,0,0,0,2.47.58c11.59,1.31,23.16,2.69,34.77,3.86q17.73,1.78,35.52,3.18c8.06.62,16.15,1,24.23,1.29,7.9.32,15.8.67,23.69.63,19.9-.09,39.8-.36,59.7-.62,4.47-.06,8.94-.4,13.41-.61,13.51-.65,27-1.26,40.53-2,7.44-.37,14.89-.69,22.31-1.33,10.67-.91,21.32-2.09,32-3.14,8.87-.87,17.76-1.53,26.6-2.64,12.4-1.56,24.75-3.46,37.12-5.21l.12.21-20.64,8.39-.7.5-1.23.14Z"/><path class="cls-4" d="M170.15,61.14c6.33-.82,12.65-1.67,19-2.47,2.4-.3,4.81-.58,7.22-.73,7.92-.47,15.85-.84,23.77-1.31,2.83-.17,5.65-.49,8.48-.74,3.21,0,6.42,0,9.63.12,7.78.19,15.58.15,23.33.7,11.59.82,23.19,1.69,34.69,3.23a547.71,547.71,0,0,1,73.44,15c21.16,5.84,41.8,13.15,62.31,20.87a8.64,8.64,0,0,1,1.68,1.2c-6.05-1.92-12-4-18.16-5.72-18.29-5-36.54-10.25-55-14.67-12.59-3-25.44-5-38.24-7.13-9.95-1.62-20-2.79-30-3.86-8.2-.88-16.43-1.58-24.67-1.92-15-.62-30-1.14-45.07-1.25-8.91-.06-17.84.6-26.73,1.25-8.52.63-17.05,1.37-25.49,2.59-12.13,1.75-24.23,3.74-36.26,6.09-9.51,1.86-18.89,4.4-28.34,6.61a7.69,7.69,0,0,1-1.91-.05c6.53-2.32,13-5,19.61-6.86,9.68-2.77,19.52-5,29.29-7.47,1.07-.27,2.14-.57,3.2-.86l1.28-.21,5.88-1.16,1.2-.12Z"/><path class="cls-5" d="M418.93,113.71l.7-.51Z"/><path class="cls-5" d="M420.21,113.07l.7-.51Z"/><path class="cls-5" d="M422.14,112.43l.7-.51Z"/><path class="cls-5" d="M424.07,111.78l.7-.5C424.54,111.45,424.31,111.62,424.07,111.78Z"/><path class="cls-5" d="M415.07,115l.7-.5Z"/><path class="cls-5" d="M417,114.35l.7-.51Z"/><path class="cls-1" d="M92.93,102.28c22.27,0,44.54,0,66.8-.11q51.5-.24,103-.63a3.61,3.61,0,0,0,2.13-.7l-4-3.38L251.39,84.9c5.44,0,10.71-.17,16,0,5.09.21,10.16.79,15.24,1.21L321,89.32c7.62.64,15.25,1.22,22.85,2,9.39,1,18.76,2.08,28.15,3.08,6.65.72,13.31,1.31,20,2,8.74,1,17.48,2.06,26.22,3.06,6.22.72,12.44,1.36,18.66,2.07,2.82.33,5.63.75,8.43,1.13-12.37,1.75-24.72,3.65-37.12,5.21-8.84,1.11-17.73,1.77-26.6,2.64-10.67,1-21.32,2.23-32,3.14-7.42.64-14.87,1-22.31,1.33-13.51.69-27,1.3-40.53,2-4.47.21-8.94.55-13.41.61-19.9.26-39.8.53-59.7.62-7.89,0-15.79-.31-23.69-.63-8.08-.32-16.17-.67-24.23-1.29q-17.79-1.38-35.52-3.18c-11.61-1.17-23.18-2.55-34.77-3.86a24.51,24.51,0,0,1-2.47-.58Q93,105.46,92.93,102.28ZM309,92l0,0c-2.18-3.27-5.14-2.06-7.84-1.16-5.94,2-7.48,10.94-3.82,13.3a28.88,28.88,0,0,0,3.4,4.17c3,2.61,6.42,2.85,10,1,3.21-1.59,4.5-4.06,4.73-7.57.28-4.07-1.49-6.86-4.58-9.11Zm14.73,13.45c.31.55.57,1.15.93,1.66a10,10,0,0,0,14.17,2.43c4.46-3.46,4.3-13.37-2.15-15.74l-.7-.53a2.15,2.15,0,0,1-.56-.12c-1.15-2.76-3.64-1.85-5.57-1.74a8,8,0,0,0-7.56,5.91C321.49,100,320.86,103.12,323.69,105.4ZM283.27,91.18c-2.78-3.38-9.77-2.51-12.6,1.57-2.29,3.3-2.17,7.71.28,10.08.51.8,1,1.59,1.52,2.4,2,3.28,5.08,4.3,8.63,4a8.2,8.2,0,0,0,7.48-5.42C290.64,98.55,289,94.4,283.27,91.18Z"/><path class="cls-3" d="M92.93,102.28q0,3.18,0,6.36l-.72,8.19-38.6-14.11a6.54,6.54,0,0,1,1.75-.51Q74.15,102.21,92.93,102.28Z"/><path class="cls-6" d="M170.07,136.21l-1.29-.56Z"/><path class="cls-6" d="M162.35,134.93l-1.29-.57Z"/><path class="cls-7" d="M26.7,165l-.71-.51Z"/><path class="cls-8" d="M283.27,91.18c5.72,3.22,7.37,7.37,5.31,12.59a8.2,8.2,0,0,1-7.48,5.42c-3.55.34-6.66-.68-8.63-4-.49-.81-1-1.6-1.52-2.4,0-.64.09-1.27.1-1.91C271.12,93.42,276,89.57,283.27,91.18Zm-3.16,2.74a6,6,0,0,0-6.39,6.42,6.52,6.52,0,0,0,6.67,6.26,6.67,6.67,0,0,0,6.64-6.35C287,96.61,284.1,93.94,280.11,93.92Z"/><path class="cls-8" d="M310.92,92.64c3.09,2.25,4.86,5,4.58,9.11-.23,3.51-1.52,6-4.73,7.57-3.63,1.81-7,1.57-10-1a28.88,28.88,0,0,1-3.4-4.17c.26-2.37,0-5,.88-7.08,2-4.59,6.16-5.53,10.78-5.06l0,0Zm-4,2.56c-4.27,0-6.72,2.2-6.82,6.19a6.69,6.69,0,0,0,6.45,6.49,6.6,6.6,0,0,0,6.64-6.67C313.15,97.44,310.83,95.22,306.89,95.2Z"/><path class="cls-8" d="M336.64,93.75c6.45,2.37,6.61,12.28,2.15,15.74a10,10,0,0,1-14.17-2.43,17.92,17.92,0,0,1-.93-1.67c0-1.37.07-2.75.11-4.12a8.36,8.36,0,0,1,6.49-8,34.39,34.39,0,0,1,5.09-.21,2.15,2.15,0,0,0,.56.12Zm2.52,8.93c0-4.05-2.31-6.74-5.94-6.83a6.91,6.91,0,0,0-6.78,6.62,6.83,6.83,0,0,0,6.71,6.64C336.72,109.06,339.13,106.47,339.16,102.68Z"/><path class="cls-9" d="M335.38,93.1a34.39,34.39,0,0,0-5.09.21,8.36,8.36,0,0,0-6.49,8c0,1.37-.07,2.75-.11,4.12-2.83-2.27-2.2-5.44-1.44-8.12a8,8,0,0,1,7.56-5.91C331.74,91.25,334.23,90.34,335.38,93.1Z"/><path class="cls-9" d="M283.27,91.18c-7.31-1.61-12.15,2.24-12.22,9.74,0,.64-.07,1.27-.1,1.91-2.45-2.37-2.57-6.78-.28-10.08C273.5,88.67,280.49,87.8,283.27,91.18Z"/><path class="cls-9" d="M309,92c-4.62-.47-8.79.47-10.78,5.06-.9,2.1-.62,4.71-.88,7.08-3.66-2.36-2.12-11.32,3.82-13.3C303.84,89.91,306.8,88.7,309,92Z"/><path class="cls-9" d="M310.92,92.64,309,92Z"/><path class="cls-9" d="M336.64,93.75l-.7-.53Z"/><path class="cls-1" d="M280.11,93.92c4,0,6.91,2.69,6.92,6.33a6.67,6.67,0,0,1-6.64,6.35,6.52,6.52,0,0,1-6.67-6.26A6,6,0,0,1,280.11,93.92Zm5.69,6.6c-1.21-1-2.32-2.47-3.67-2.72-2.18-.39-3.36,1.18-3.38,3.41s1.18,2.94,3.22,3S285.17,103.36,285.8,100.52Z"/><path class="cls-1" d="M306.89,95.2c3.94,0,6.26,2.24,6.27,6a6.6,6.6,0,0,1-6.64,6.67,6.69,6.69,0,0,1-6.45-6.49C300.17,97.4,302.62,95.18,306.89,95.2Zm1.95,3.2c-2.84.59-3.75,1.65-3.75,3.74s1,3.23,3.24,3.32c2.48.1,3.39-1.54,3.12-3.32C311.25,100.79,309.76,99.64,308.84,98.4Z"/><path class="cls-1" d="M339.16,102.68c0,3.79-2.44,6.38-6,6.43a6.83,6.83,0,0,1-6.71-6.64,6.91,6.91,0,0,1,6.78-6.62C336.85,95.94,339.19,98.63,339.16,102.68Zm-7.68.82c-.3,2.35,1.38,3,3.25,3.14a2.82,2.82,0,0,0,3.18-3c0-1.84-.61-3.48-3.11-3.41C332.59,100.26,331.4,101.1,331.48,103.5Z"/><path class="cls-5" d="M285.8,100.52c-.63,2.84-1.79,3.65-3.83,3.64s-3.25-.78-3.22-3,1.2-3.8,3.38-3.41C283.48,98.05,284.59,99.57,285.8,100.52Z"/><path class="cls-5" d="M308.84,98.4c.92,1.24,2.41,2.39,2.61,3.74.27,1.78-.64,3.42-3.12,3.32-2.29-.09-3.24-1.08-3.24-3.32S306,99,308.84,98.4Z"/><path class="cls-5" d="M331.48,103.5c-.08-2.4,1.11-3.24,3.32-3.3,2.5-.07,3.08,1.57,3.11,3.41a2.82,2.82,0,0,1-3.18,3C332.86,106.55,331.18,105.85,331.48,103.5Z"/><polygon class="cls-10" points="166.26 134.37 122.71 172.14 23.2 160.58 133.11 200.49 230.81 140.91 166.26 134.37"/><path class="cls-11" d="M142.82,66.12s8.25-.79,11-1.11c5.08-.59,20.39-2.07,20.39-2.07l-75-34.59Z"/><path class="cls-12" d="M203,101.3s-46.36-5.18-35.25-39.1c0,0,7.78-27,48.94,18.13l3,2L295,85.94Z"/><path class="cls-13" d="M124.31,74.66l1.45-.3,2,5.54h-1.56Z"/><path class="cls-13" d="M127,74.1l1.44-.29,2.19,6.1h-1.56Z"/><path class="cls-13" d="M121.62,75.21l1.45-.3,1.78,5-1.57,0Z"/><path class="cls-13" d="M118.93,75.76l1.45-.3,1.56,4.38-1.56,0Z"/><path class="cls-13" d="M129.7,73.55l1.33-.27,2.36,6.6-1.42,0Z"/><path class="cls-13" d="M135,72.47l1.45-.3,1.43,4a12.82,12.82,0,0,0-.83,2Z"/><path class="cls-13" d="M139.59,73c-.3.49-.63,1.06-1,1.66l-1-2.72,1.45-.3Z"/><path class="cls-13" d="M132.27,73l1.45-.29,2.52,7c-.39,0-.9.06-1.53.08Z"/><path class="cls-13" d="M140.35,71.37l.28-.06-.19.3Z"/><path class="cls-13" d="M101.68,79.39h-.39l.36-.08Z"/><path class="cls-13" d="M113.54,76.86l1.45-.29,1.14,3.17-1.57,0Z"/><path class="cls-13" d="M116.24,76.31l1.44-.3L119,79.79l-1.57,0Z"/><path class="cls-13" d="M369.33,105.11l1.47-.09.51-5.86-1.5.41Z"/><path class="cls-13" d="M372.07,105l1.48-.09.56-6.45-1.51.4Z"/><path class="cls-13" d="M366.58,105.26l1.48-.09.46-5.25-1.51.42Z"/><path class="cls-13" d="M363.84,105.41l1.47-.09.41-4.63-1.51.42Z"/><path class="cls-13" d="M374.81,104.81l1.36-.08.61-7-1.38.34Z"/><path class="cls-13" d="M380.18,104.51l1.48-.08.37-4.21a12.93,12.93,0,0,1-1.32-1.75Z"/><path class="cls-13" d="M384.53,102.85c-.42-.41-.88-.87-1.35-1.37l-.25,2.88,1.47-.08Z"/><path class="cls-13" d="M377.44,104.66l1.48-.08.64-7.44c-.38.07-.88.17-1.49.31Z"/><path class="cls-13" d="M385.67,104.21H386l-.27-.24Z"/><path class="cls-13" d="M346.23,106.28l-.37.11.36,0Z"/><path class="cls-13" d="M358.35,105.71l1.48-.09.29-3.35-1.51.43Z"/><path class="cls-13" d="M361.09,105.56l1.48-.09.35-4-1.51.42Z"/><path class="cls-14" d="M190.84,87.43l0-.09a1.06,1.06,0,0,0-1.94-.86,3.19,3.19,0,0,0-.24,1.33l-1.41-1.69L182,88.54S185.67,77,202.84,82.8l10.67,2.79s17.92-1,34.74,5c0,0,4.17-2.75,17.47,2.09a.45.45,0,0,1,.27.57h0a.75.75,0,0,1-1,.43l-2.72-1.1a.52.52,0,0,0-.61.18h0a.53.53,0,0,0,.29.81c1.8.54,6.56,2,7.07,2.53s-.59,1.57-.59,1.57l-7.94-2.25,6.77,2.69a1,1,0,0,1,.55,1.24h0a1,1,0,0,1-1.36.62L257,96.43l-.51.56a2.41,2.41,0,0,1-2.61.62h0L255.8,96l-.66-.24-1,.81a2.18,2.18,0,0,1-2.15.37h0l-.15-1.22-.92.88A1.89,1.89,0,0,1,249,97h0l-.22-1.84-.21.26a2,2,0,0,1-2.2.6h0a2.53,2.53,0,0,0-1.37-3.2c-.89-.39-1.72-.71-1.77-.59s-7.54,2.18-15.35-.43L224,90.34l-1.84,2s.47-3.63-9.38-2.31c0,0-.85,1.38-4.62,1.05a2.79,2.79,0,0,1-2-4.39h0l-1-.39a6.35,6.35,0,0,0-3,4.16l-1.52-.56,2.78-3.65-1.16-.72s-2.85,1.28-3.06,3.83l-1.45-.53s.5-3.62,3.13-4.4c0,0-2.29-1.44-5.49,3.52l-1.19-.44s.68-2.67,3.12-2.94c0,0-4.28-1.88-5.32,3.3"/><path d="M417.3,102.58C397.61,97.4,346.11,88.3,317.31,89l-97.91-.29-7.27-3.87s-17.76-33.29-53.66-23.43c0,0-12.56-.23-19.51,13l-25.51,4.88-2.37,26.92s13,25,188.72,2.78"/><path class="cls-15" d="M422.68,95.18S358.94,76.89,320.19,78.82l-98.86.81-7.13-2.8s-14-38.12-50.41-26.82c0,0-15.83,3.22-23.14,17.43l-25.84,5.78L40.55,99.91s84.78,36.9,262.55,9.24C303.1,109.15,370.73,105.07,422.68,95.18Z"/><path class="cls-16" d="M264.78,116.15l-10.48-4L381,101.73l-6.29-9.06,69,8.68c0,.1,5.43.47,3.05,1.34-3.19,1.61-26.73,7.72-26.91,8.34C371.3,121.9,259.8,136,155.44,122.3c-22.63-3-40.13-7.48-41.42-13l-4.66-.85S230.91,117.37,264.78,116.15Z"/><path class="cls-17" d="M330.85,86.35s-35.68-18.2-54.15-26.79c-21.26-9.91-49.61-16.93-49.61-16.93S270.61,64,283.82,72.73c7.54,5,27.56,21.15,27.56,21.15Z"/><path d="M327.35,84.71s15.74,1.46-5,7.61l-34.26,9.37-23.73,4.59S332.52,90.13,327.35,84.71Z"/><path class="cls-14" d="M325.84,84.18l1.51.53S331.79,87,309.59,94C309.59,94,330.05,86.31,325.84,84.18Z"/><path class="cls-18" d="M329.61,86.46,284.17,63.81s-93.77-51.15-122-9.16c-30.28,45.06,57.69,79.64,167,32.79Z"/><path class="cls-14" d="M196.85,78.83s5.4,2,6.69-5.42c0,0,7-17.3-9.51-27.23,0,0-16.45-7-23.27,6.72a19.46,19.46,0,0,0-1.26,13.77c.68,2.53,1.71,5.2,3.15,6.41l-3.59,11.26s7.42-11.89,27.14-4.14Z"/><path class="cls-19" d="M183.42,59.81s14.58.14,14,11.92c0,0,.53,1.81,6.07,1.44,0,0,5.75-14.76-5.74-24.43C197.76,48.74,189.28,47.94,183.42,59.81Z"/><circle class="cls-20" cx="184.13" cy="64.61" r="5.21"/><polygon class="cls-21" points="185.09 62.81 185.09 62.81 183.39 63.61 182.67 63.96 182.97 64.71 183.68 66.45 184.4 66.09 183.72 64.35 185.37 63.53 185.39 63.52 185.09 62.81"/><polygon class="cls-14" points="183.68 66.45 184 67.17 186.42 66.01 187.14 65.64 186.83 64.91 185.8 62.45 185.09 62.81 185.87 64.67 186.12 65.25 183.75 66.42 183.68 66.45"/><polygon class="cls-21" points="183.79 62.07 183.79 62.07 181.9 62.97 181.09 63.35 181.43 64.18 182.22 66.13 183.02 65.74 182.25 63.79 184.1 62.88 184.12 62.87 183.79 62.07"/><polygon class="cls-14" points="182.1 65.84 182.42 66.57 184.84 65.41 185.56 65.04 185.25 64.31 184.22 61.84 183.51 62.2 184.28 64.06 184.53 64.65 182.16 65.81 182.1 65.84"/><path class="cls-22" d="M196.2,80.2l6,6.2s-34.28-10.52-32.5,6l-.5-1.4a12.78,12.78,0,0,1-.51-6.93h0S173.74,71.88,196.2,80.2Z"/><path class="cls-14" d="M236.12,90.9S219.61,88.29,201.65,86c0,0-28.48-7.63-31.93,2.07,0,0-6.63,13.36,33.47,15A46.85,46.85,0,0,0,217,101.56l15.48-4.1a44.94,44.94,0,0,0,15.27,3c7.64-.1,7.77,1.12,8.24-2.51,0,0,3.43-1.36-3-4C253.07,94,255.42,91.4,236.12,90.9Z"/><path class="cls-11" d="M166.26,134.36s8.25.8,11,1.12c5.08.59,20.39,2.07,20.39,2.07l-75,34.59Z"/></g></g></svg>